<?xml version="1.0" standalone="no"?>
<!DOCTYPE svg PUBLIC "-//W3C//DTD SVG 20010904//EN"
 "http://www.w3.org/TR/2001/REC-SVG-20010904/DTD/svg10.dtd">
<svg version="1.0" xmlns="http://www.w3.org/2000/svg"
 width="512.000000pt" height="512.000000pt" viewBox="0 0 512.000000 512.000000"
 preserveAspectRatio="xMidYMid meet">
<metadata>
Created by potrace 1.14, written by Peter Selinger 2001-2017
</metadata>
<g transform="translate(0.000000,512.000000) scale(0.100000,-0.100000)"
fill="#000000" stroke="none">
<path d="M2378 5055 c-2 -2 -41 -6 -87 -9 -47 -4 -87 -9 -91 -11 -3 -2 -26 -6
-50 -10 -224 -33 -477 -115 -705 -228 -414 -207 -787 -551 -1024 -945 -34 -57
-65 -111 -68 -120 -3 -9 -11 -24 -18 -32 -19 -24 -101 -217 -140 -329 -41
-120 -78 -263 -95 -371 -7 -41 -14 -84 -16 -95 -25 -135 -25 -624 1 -697 2 -7
6 -31 9 -53 21 -187 123 -502 233 -718 48 -95 159 -280 200 -332 28 -37 31
-40 68 -89 50 -67 96 -117 205 -227 347 -349 806 -593 1287 -684 167 -32 256
-39 463 -40 201 0 286 6 425 30 418 72 813 249 1145 513 94 75 312 287 360
351 14 18 40 52 59 74 60 73 177 258 239 377 106 201 187 432 231 650 37 186
46 280 46 495 0 160 -7 292 -19 350 -2 11 -9 54 -16 95 -48 301 -190 656 -370
929 -45 68 -88 131 -95 140 -128 161 -299 336 -430 441 -198 157 -478 317
-685 390 -19 6 -44 16 -55 20 -62 26 -267 82 -350 95 -22 4 -52 9 -66 11 -110
19 -270 31 -416 31 -95 0 -173 -1 -175 -2z m1203 -1165 c4 -93 -1 -1789 -6
-1830 -44 -365 -255 -642 -586 -770 -202 -78 -483 -96 -704 -45 -87 20 -232
77 -299 118 -254 153 -418 419 -442 714 -6 76 -7 100 -5 173 l1 35 362 0 363
0 1 -55 c4 -172 72 -285 197 -326 65 -22 176 -15 232 14 46 23 96 73 118 117
39 78 40 93 42 995 1 481 3 875 4 875 0 0 163 1 361 1 316 -1 360 -2 361 -16z"/>
</g>
</svg>
